P1 10 10
1111100111
1101011100
0111100011
1011011111
1111111001
1101111111
1111111111
1111111111
1011111000
1111111111
