P1 17 34
10110011111101111001010101111111111011111010101111001011110110010111111111010111111101111100110111111101011111111100111110000111011010111111010101110101110011111101111111111110111101111111011111011111001110011001101101011111011110110111111101001100111011110111111111011111100011101001111001111100001100001111111111110111111111110111101011000111111011111111011111101111101110001111110101110111110111111101101001011111110100011100111010111101111110101111111100111111111111000110101111111111111011111111110110111011101101000111110011111010111100111011111111111001110111111011101111