P1 10 10
1111111111
0111011111
1111111111
1111111111
1110111111
1111110111
1011011111
0111011111
1101111110
0111110011
