P1 5 10
10011
10000
11111
01001
10101
00000
11011
01111
11010
01000
