P1 17 5
1111111111111110111111011001011111111111011011111111011111101111101100110010111111111