P1 11 16
10011111010101111111111101110111111110111101101011010011011011111100100110111111101111100001111111110110111111101011111101111010101101111010101111111110100001101100011111001001