P1 22 14
01111011111011111110111001011111000101101111111111011111110101111111111101111011101110111101111111111001011101110110000001111001011101111000111111011000100111111101111011101111101111110111111101110110110111111110110110011011100111010111011111111110010111001110010111111111111001011111111110110101011111110001