P1 5 5
1111101010111101111111111