P1 5 5
10011
11001
01110
11000
11010
