P1 10 5
10111011110000000100100111111100111111001101100111